 <svg width="10" height="6" viewBox="0 0 10 6" fill="none" xmlns="http://www.w3.org/2000/svg">
    <path fill-rule="evenodd" clip-rule="evenodd"
        d="M9.0242 0.1758C9.13668 0.288316 9.19987 0.440901 9.19987 0.6C9.19987 0.759098 9.13668 0.911683 9.0242 1.0242L4.2242 5.8242C4.11168 5.93668 3.9591 5.99987 3.8 5.99987C3.6409 5.99987 3.48832 5.93668 3.3758 5.8242L0.9758 3.4242C0.866505 3.31104 0.806029 3.15948 0.807396 3.00216C0.808763 2.84484 0.871864 2.69435 0.983109 2.58311C1.09435 2.47186 1.24484 2.40876 1.40216 2.4074C1.55948 2.40603 1.71104 2.46651 1.8242 2.5758L3.8 4.5516L8.1758 0.1758C8.28832 0.0633171 8.4409 0.000127792 8.6 0.000127792C8.7591 0.000127792 8.91168 0.0633171 9.0242 0.1758Z"
        fill="white" />
</svg>