<svg class="fill-current" width="12" height="12" viewBox="0 0 12 12" fill="none"
    xmlns="http://www.w3.org/2000/svg">
    <path
        d="M9.86225 5.89496e-06H6.78116C6.54935 -0.00060127 6.31971 0.0456996 6.10556 0.136228C5.89141 0.226757 5.69698 0.359715 5.53355 0.527406L5.11768 0.950405C5.06299 1.00619 5.0196 1.07242 4.99001 1.14531C4.96041 1.21819 4.94517 1.29631 4.94517 1.37521C4.94517 1.53454 5.00723 1.68734 5.11768 1.80001C5.22813 1.91267 5.37793 1.97596 5.53414 1.97596C5.69034 1.97596 5.84014 1.91267 5.9506 1.80001L6.36529 1.37641C6.47581 1.26415 6.6252 1.20079 6.78116 1.20001H9.82343L9.86225 8.4C9.70624 8.4 9.55663 8.46322 9.44631 8.57574C9.336 8.68826 9.27403 8.84087 9.27403 9C9.27403 9.15913 9.336 9.31174 9.44631 9.42427C9.55663 9.53679 9.70624 9.6 9.86225 9.6C10.169 9.59432 10.461 9.46481 10.6742 9.23986C10.8875 9.01491 11.0046 8.71288 10.9999 8.4V1.20001C11.0046 0.887122 10.8875 0.585097 10.6742 0.360148C10.461 0.1352 10.169 0.00568715 9.86225 5.89496e-06Z"
        fill="#6F8BC2" />
    <path
        d="M7.50937 2.4H4.42887C4.19695 2.39925 3.96719 2.44548 3.75292 2.53602C3.53865 2.62655 3.34414 2.75959 3.18067 2.9274L1.51719 4.6242C1.35267 4.79095 1.22225 4.98935 1.13349 5.20791C1.04473 5.42647 0.999409 5.66084 1.00015 5.8974V10.8C0.995267 11.1128 1.11224 11.4149 1.3254 11.6398C1.53856 11.8648 1.8305 11.9943 2.13717 12H7.50937C7.8161 11.9943 8.1081 11.8648 8.32135 11.6399C8.53461 11.4149 8.65171 11.1129 8.64699 10.8V3.6C8.65171 3.28712 8.53461 2.9851 8.32135 2.76015C8.1081 2.5352 7.8161 2.40569 7.50937 2.4ZM3.94124 3.8484V5.4H2.42011L3.94124 3.8484ZM2.17658 10.8V6.6H3.94124C4.25325 6.6 4.55248 6.47357 4.77311 6.24853C4.99373 6.02349 5.11768 5.71826 5.11768 5.4V3.5964L7.46702 3.5844C7.46992 3.58904 7.47116 3.59455 7.47055 3.6L7.50937 10.8H2.17658Z"
        fill="#6F8BC2" />
</svg>