<svg width="10" height="10" viewBox="0 0 10 10" fill="none"
    xmlns="http://www.w3.org/2000/svg">
    <path
        d="M8.5 2.5L8.0665 8.571C8.04854 8.82329 7.93565 9.05941 7.75056 9.23179C7.56547 9.40417 7.32193 9.50001 7.069 9.5H2.931C2.67807 9.50001 2.43453 9.40417 2.24944 9.23179C2.06435 9.05941 1.95146 8.82329 1.9335 8.571L1.5 2.5H3.5V1C3.5 0.867392 3.55268 0.740215 3.64645 0.646447C3.74021 0.552678 3.86739 0.5 4 0.5H6C6.13261 0.5 6.25979 0.552678 6.35355 0.646447C6.44732 0.740215 6.5 0.867392 6.5 1V2.5H8.5Z"
        fill="#C81E1E" />
    <path
        d="M4 4.5V7.5M6 4.5V7.5M1 2.5H9M8.5 2.5L8.0665 8.571C8.04854 8.82329 7.93565 9.05941 7.75056 9.23179C7.56547 9.40417 7.32193 9.50001 7.069 9.5H2.931C2.67807 9.50001 2.43453 9.40417 2.24944 9.23179C2.06435 9.05941 1.95146 8.82329 1.9335 8.571L1.5 2.5H8.5ZM6.5 2.5V1C6.5 0.867392 6.44732 0.740215 6.35355 0.646447C6.25979 0.552678 6.13261 0.5 6 0.5H4C3.86739 0.5 3.74021 0.552678 3.64645 0.646447C3.55268 0.740215 3.5 0.867392 3.5 1V2.5H6.5Z"
        stroke="white" stroke-linecap="round" stroke-linejoin="round" />
</svg>