<svg width="14" height="14" viewBox="0 0 14 14" fill="none" xmlns="http://www.w3.org/2000/svg">
    <path
        d="M12.115 5.67063L3.36188 0.212139C3.13939 0.0742512 2.88688 0.00110465 2.62959 1.24141e-05C2.3723 -0.00107982 2.11925 0.0699204 1.89574 0.205915C1.67375 0.338909 1.4891 0.53281 1.36091 0.76754C1.23273 1.00227 1.16567 1.2693 1.16668 1.54097V12.458C1.16567 12.7296 1.23273 12.9967 1.36091 13.2314C1.4891 13.4661 1.67375 13.66 1.89574 13.793C2.11917 13.9297 2.37242 14.0011 2.62996 14C2.88749 13.9989 3.1402 13.9254 3.36261 13.7868L12.1164 8.3283C12.3345 8.19319 12.5155 7.99934 12.6413 7.76613C12.7671 7.53293 12.8333 7.26856 12.8333 6.99947C12.8333 6.73038 12.7671 6.466 12.6413 6.2328C12.5155 5.9996 12.3345 5.80574 12.1164 5.67063H12.115ZM2.6248 12.458V1.54097L11.3786 6.98702L2.6248 12.458Z"
        fill="#1A53E7" />
</svg>