<svg width="20" height="20" viewBox="0 0 20 20" fill="none" xmlns="http://www.w3.org/2000/svg">
    <path
        d="M9.08507 5.7441L6.71689 3.24416C6.64338 3.1664 6.55588 3.10492 6.45955 3.06333C6.26644 2.97907 6.04957 2.97907 5.85646 3.06333C5.76013 3.10492 5.67264 3.1664 5.59912 3.24416L3.23094 5.7441C3.08292 5.90058 2.99985 6.11271 3 6.33385C3.00007 6.44334 3.02058 6.55174 3.06034 6.65287C3.1001 6.754 3.15834 6.84587 3.23173 6.92324C3.30513 7.00061 3.39224 7.06196 3.48809 7.10379C3.58395 7.14562 3.68667 7.16711 3.79039 7.16703C3.99987 7.16688 4.2007 7.07888 4.34872 6.92241L5.3694 5.84493V17.1663C5.3694 17.3873 5.45257 17.5993 5.60061 17.7556C5.74865 17.9119 5.94944 17.9997 6.1588 17.9997C6.36815 17.9997 6.56894 17.9119 6.71698 17.7556C6.86502 17.5993 6.94819 17.3873 6.94819 17.1663V5.84493L7.96887 6.92241C8.11775 7.0742 8.31715 7.1582 8.52413 7.1563C8.7311 7.1544 8.92909 7.06676 9.07545 6.91226C9.22181 6.75776 9.30483 6.54875 9.30663 6.33026C9.30843 6.11177 9.22886 5.90127 9.08507 5.7441Z"
        fill="#C7C7C7" />
    <path
        d="M16.4209 9.66651H12.4739C12.3239 9.66661 12.1769 9.62155 12.0502 9.53662C11.9235 9.45169 11.8224 9.33041 11.7587 9.18698C11.695 9.04355 11.6713 8.88393 11.6905 8.72681C11.7097 8.56969 11.7708 8.4216 11.8669 8.29988L14.7355 4.66663H12.4739C12.2646 4.66663 12.0638 4.57883 11.9157 4.42256C11.7677 4.26628 11.6845 4.05432 11.6845 3.83331C11.6845 3.61231 11.7677 3.40035 11.9157 3.24407C12.0638 3.0878 12.2646 3 12.4739 3H16.4209C16.5709 2.9999 16.7179 3.04496 16.8446 3.12989C16.9713 3.21482 17.0724 3.33611 17.1361 3.47953C17.1998 3.62296 17.2235 3.78259 17.2043 3.9397C17.1852 4.09682 17.124 4.24492 17.0279 4.36664L14.1593 7.99988H16.4209C16.6302 7.99988 16.831 8.08768 16.9791 8.24396C17.1271 8.40023 17.2103 8.61219 17.2103 8.8332C17.2103 9.05421 17.1271 9.26616 16.9791 9.42244C16.831 9.57872 16.6302 9.66651 16.4209 9.66651Z"
        fill="#C7C7C7" />
    <path
        d="M17.9207 16.7938L15.1579 10.9606C15.0849 10.8315 14.9815 10.7246 14.8576 10.6503C14.7338 10.576 14.5938 10.537 14.4514 10.537C14.3089 10.537 14.1689 10.576 14.0451 10.6503C13.9212 10.7246 13.8178 10.8315 13.7448 10.9606L10.982 16.7938C10.8884 16.9916 10.8731 17.2206 10.9394 17.4303C11.0057 17.64 11.1482 17.8134 11.3356 17.9122C11.523 18.0109 11.7399 18.0271 11.9385 17.9571C12.1372 17.8871 12.3014 17.7366 12.395 17.5388L12.9618 16.333H15.933L16.5038 17.5388C16.5501 17.6368 16.6143 17.7241 16.6926 17.7959C16.7709 17.8677 16.8618 17.9224 16.9602 17.9571C17.0586 17.9918 17.1625 18.0056 17.2659 17.9979C17.3694 17.9902 17.4704 17.9611 17.5631 17.9122C17.6559 17.8632 17.7387 17.7955 17.8066 17.7128C17.8746 17.6302 17.9265 17.5342 17.9594 17.4303C17.9922 17.3265 18.0053 17.2168 17.998 17.1076C17.9907 16.9984 17.9631 16.8918 17.9168 16.7938H17.9207ZM13.7512 14.6664L14.4474 13.1964L15.1437 14.6664H13.7512Z"
        fill="#C7C7C7" />
</svg>