<svg width="11" height="12" viewBox="0 0 11 12" fill="none" xmlns="http://www.w3.org/2000/svg">
    <path d="M5.49998 5.00001V11V5.00001Z" fill="white"/>
    <path d="M2.99998 8.00001C2.50748 8.00056 2.0321 7.81938 1.66491 7.49117C1.29772 7.16297 1.06453 6.71082 1.01003 6.22135C0.955529 5.73188 1.08354 5.23951 1.36954 4.83857C1.65554 4.43763 2.07943 4.15631 2.55998 4.04851C2.42094 3.40006 2.54519 2.72293 2.9054 2.16609C3.26561 1.60925 3.83227 1.2183 4.48073 1.07926C5.12918 0.940224 5.80631 1.06448 6.36315 1.42469C6.91999 1.7849 7.31094 2.35156 7.44998 3.00001H7.49998C8.11995 2.99939 8.71804 3.22915 9.17814 3.6447C9.63824 4.06025 9.92753 4.63193 9.98983 5.24877C10.0521 5.8656 9.88302 6.48359 9.51532 6.98275C9.14761 7.48191 8.60755 7.82664 7.99998 7.95001M6.99998 6.50001L5.49998 5.00001M5.49998 5.00001L3.99998 6.50001M5.49998 5.00001V11" stroke="white" stroke-linecap="round" stroke-linejoin="round"/>
</svg>
