<svg width="10" height="10" viewBox="0 0 10 10" fill="none"
    xmlns="http://www.w3.org/2000/svg">
    <path
        d="M7.08991 8.84379C7.08991 8.86743 7.081 8.89009 7.06514 8.9068C7.04928 8.92351 7.02777 8.9329 7.00534 8.9329H1.09742C1.07499 8.9329 1.05348 8.92351 1.03762 8.9068C1.02175 8.89009 1.01284 8.86743 1.01284 8.84379V2.61939C1.01284 2.59576 1.02175 2.5731 1.03762 2.55639C1.05348 2.53968 1.07499 2.53029 1.09742 2.53029H4.7315L5.74435 1.46319H1.09742C0.806446 1.46347 0.52747 1.58538 0.321722 1.80214C0.115975 2.01891 0.000268176 2.31283 0 2.61939V8.84379C0.000268176 9.15035 0.115975 9.44427 0.321722 9.66104C0.52747 9.87781 0.806446 9.99972 1.09742 10H7.00534C7.29631 9.99972 7.57529 9.87781 7.78104 9.66104C7.98678 9.44427 8.10249 9.15035 8.10276 8.84379V5.01503L7.08991 6.08214V8.84379Z"
        fill="#6F8BC2" />
    <path
        d="M9.55315 0.468649C9.26825 0.168573 8.88188 0 8.47903 0C8.07617 0 7.68981 0.168573 7.40491 0.468649L3.46545 4.61861C3.39484 4.69312 3.34673 4.78799 3.32719 4.89125L2.96915 6.77789C2.95413 6.85542 2.95567 6.93549 2.97365 7.01232C2.99163 7.08915 3.0256 7.1608 3.0731 7.22209C3.12061 7.28337 3.18046 7.33276 3.24832 7.36667C3.31618 7.40058 3.39034 7.41816 3.46545 7.41815C3.49943 7.41803 3.53334 7.41464 3.56673 7.40801L5.35694 7.03079C5.45501 7.01005 5.54505 6.95918 5.61572 6.8846L9.55467 2.73464C9.69598 2.58586 9.80805 2.40917 9.88446 2.2147C9.96088 2.02023 10.0001 1.81179 10 1.60131C9.99986 1.39083 9.96032 1.18245 9.88364 0.988096C9.80696 0.793738 9.69466 0.617221 9.55315 0.468649ZM8.83707 1.22309C8.88416 1.27264 8.92151 1.33149 8.94699 1.39626C8.97248 1.46103 8.9856 1.53046 8.9856 1.60058C8.9856 1.67069 8.97248 1.74012 8.94699 1.8049C8.92151 1.86967 8.88416 1.92851 8.83707 1.97806L8.56563 2.26351L7.84955 1.50907L8.12099 1.22309C8.21596 1.12306 8.34474 1.06687 8.47903 1.06687C8.61331 1.06687 8.7421 1.12306 8.83707 1.22309ZM5.00649 6.01384L4.11114 6.20272L4.29041 5.25887L7.13347 2.26351L7.84955 3.01795L5.00649 6.01384Z"
        fill="#6F8BC2" />
</svg>